<?xml version="1.0" encoding="utf-8"?>
<!-- Generator: Adobe Illustrator 19.0.0, SVG Export Plug-In . SVG Version: 6.00 Build 0)  -->
<svg version="1.1" id="Warstwa_1" xmlns="http://www.w3.org/2000/svg" xmlns:xlink="http://www.w3.org/1999/xlink" x="0px" y="0px"
	 viewBox="0 0 21 21" style="enable-background:new 0 0 21 21;" xml:space="preserve">
<path id="XMLID_51_" d="M10.5,0C4.7,0,0,4.7,0,10.5S4.7,21,10.5,21S21,16.3,21,10.5S16.3,0,10.5,0z M5,18.2v-1.7
	c0-2.3,1.4-4.3,3.5-5.1c0.6,0.4,1.2,0.6,2,0.6c0.7,0,1.4-0.2,2-0.6c2.1,0.8,3.5,2.9,3.5,5.1v1.7c-1.6,1.1-3.4,1.8-5.5,1.8
	S6.6,19.3,5,18.2z M13,8.5c0,1.4-1.1,2.5-2.5,2.5S8,9.9,8,8.5v-2C8,5.1,9.1,4,10.5,4S13,5.1,13,6.5V8.5z M17,17.4v-0.9
	c0-2.5-1.5-4.8-3.7-5.9C13.7,10,14,9.3,14,8.5v-2C14,4.6,12.4,3,10.5,3S7,4.6,7,6.5v2c0,0.8,0.3,1.5,0.7,2.1C5.5,11.7,4,14,4,16.5
	v0.9c-1.8-1.7-3-4.2-3-6.9C1,5.3,5.3,1,10.5,1S20,5.3,20,10.5C20,13.2,18.8,15.7,17,17.4z"/>
</svg>
